<mxfile host="app.diagrams.net" agent="Mozilla/5.0 (Windows NT 10.0; Win64; x64) AppleWebKit/537.36 (KHTML, like Gecko) Chrome/132.0.0.0 Safari/537.36" version="26.0.10">
  <diagram name="Page-1" id="KMgfQyQudTXdG2ZPlK8O">
    <mxGraphModel dx="1249" dy="609" grid="1" gridSize="10" guides="1" tooltips="1" connect="1" arrows="1" fold="1" page="1" pageScale="1" pageWidth="850" pageHeight="1100" math="0" shadow="0">
      <root>
        <mxCell id="0" />
        <mxCell id="1" parent="0" />
        <mxCell id="d-b3tzzMr_MVsFJximhL-36" style="edgeStyle=orthogonalEdgeStyle;rounded=0;orthogonalLoop=1;jettySize=auto;html=1;exitX=1;exitY=0.75;exitDx=0;exitDy=0;entryX=0;entryY=0.25;entryDx=0;entryDy=0;" parent="1" source="YRSosXPL-NYiQ_g2Kipr-1" target="d-b3tzzMr_MVsFJximhL-15" edge="1">
          <mxGeometry relative="1" as="geometry" />
        </mxCell>
        <mxCell id="d-b3tzzMr_MVsFJximhL-38" style="edgeStyle=orthogonalEdgeStyle;rounded=0;orthogonalLoop=1;jettySize=auto;html=1;exitX=1;exitY=0.5;exitDx=0;exitDy=0;entryX=0;entryY=0.75;entryDx=0;entryDy=0;" parent="1" source="YRSosXPL-NYiQ_g2Kipr-1" target="d-b3tzzMr_MVsFJximhL-6" edge="1">
          <mxGeometry relative="1" as="geometry" />
        </mxCell>
        <mxCell id="YRSosXPL-NYiQ_g2Kipr-1" value="" style="swimlane;startSize=0;fillColor=light-dark(#B3FF66,var(--ge-dark-color, #121212));" parent="1" vertex="1">
          <mxGeometry x="20" y="200" width="200" height="200" as="geometry">
            <mxRectangle x="120" y="110" width="50" height="40" as="alternateBounds" />
          </mxGeometry>
        </mxCell>
        <mxCell id="d-b3tzzMr_MVsFJximhL-2" value="Web application" style="text;html=1;align=center;verticalAlign=middle;whiteSpace=wrap;rounded=0;" parent="YRSosXPL-NYiQ_g2Kipr-1" vertex="1">
          <mxGeometry x="23.5" y="20" width="60" height="30" as="geometry" />
        </mxCell>
        <mxCell id="d-b3tzzMr_MVsFJximhL-8" value="" style="sketch=0;pointerEvents=1;shadow=0;dashed=0;html=1;strokeColor=none;labelPosition=center;verticalLabelPosition=bottom;verticalAlign=top;outlineConnect=0;align=center;shape=mxgraph.office.servers.physical_host;fillColor=#2072B8;" parent="YRSosXPL-NYiQ_g2Kipr-1" vertex="1">
          <mxGeometry x="40" y="84" width="27" height="52" as="geometry" />
        </mxCell>
        <mxCell id="d-b3tzzMr_MVsFJximhL-9" value="" style="sketch=0;pointerEvents=1;shadow=0;dashed=0;html=1;strokeColor=none;labelPosition=center;verticalLabelPosition=bottom;verticalAlign=top;outlineConnect=0;align=center;shape=mxgraph.office.servers.physical_host;fillColor=#2072B8;" parent="YRSosXPL-NYiQ_g2Kipr-1" vertex="1">
          <mxGeometry x="120" y="84" width="27" height="52" as="geometry" />
        </mxCell>
        <mxCell id="d-b3tzzMr_MVsFJximhL-12" value="Physical host" style="text;html=1;align=center;verticalAlign=middle;resizable=0;points=[];autosize=1;strokeColor=none;fillColor=none;" parent="YRSosXPL-NYiQ_g2Kipr-1" vertex="1">
          <mxGeometry x="40" y="160" width="90" height="30" as="geometry" />
        </mxCell>
        <mxCell id="d-b3tzzMr_MVsFJximhL-6" value="" style="swimlane;startSize=0;" parent="1" vertex="1">
          <mxGeometry x="650" y="288" width="140" height="150" as="geometry" />
        </mxCell>
        <mxCell id="d-b3tzzMr_MVsFJximhL-7" value="Sql Server" style="text;html=1;align=center;verticalAlign=middle;resizable=0;points=[];autosize=1;strokeColor=none;fillColor=none;" parent="d-b3tzzMr_MVsFJximhL-6" vertex="1">
          <mxGeometry x="20" y="120" width="80" height="30" as="geometry" />
        </mxCell>
        <mxCell id="d-b3tzzMr_MVsFJximhL-5" value="" style="image;html=1;image=img/lib/clip_art/computers/Database_128x128.png" parent="d-b3tzzMr_MVsFJximhL-6" vertex="1">
          <mxGeometry x="30" y="30" width="80" height="80" as="geometry" />
        </mxCell>
        <mxCell id="d-b3tzzMr_MVsFJximhL-15" value="" style="swimlane;startSize=0;" parent="1" vertex="1">
          <mxGeometry x="340" y="420" width="200" height="130" as="geometry" />
        </mxCell>
        <mxCell id="d-b3tzzMr_MVsFJximhL-16" value="" style="sketch=0;pointerEvents=1;shadow=0;dashed=0;html=1;strokeColor=none;fillColor=#505050;labelPosition=center;verticalLabelPosition=bottom;verticalAlign=top;outlineConnect=0;align=center;shape=mxgraph.office.servers.file_server;" parent="d-b3tzzMr_MVsFJximhL-15" vertex="1">
          <mxGeometry x="77.5" y="30" width="45" height="56" as="geometry" />
        </mxCell>
        <mxCell id="d-b3tzzMr_MVsFJximhL-27" value="Local File System" style="text;html=1;align=center;verticalAlign=middle;resizable=0;points=[];autosize=1;strokeColor=none;fillColor=none;" parent="d-b3tzzMr_MVsFJximhL-15" vertex="1">
          <mxGeometry x="40" y="90" width="120" height="30" as="geometry" />
        </mxCell>
        <mxCell id="d-b3tzzMr_MVsFJximhL-44" style="edgeStyle=orthogonalEdgeStyle;rounded=0;orthogonalLoop=1;jettySize=auto;html=1;exitX=0;exitY=0.25;exitDx=0;exitDy=0;" parent="1" source="d-b3tzzMr_MVsFJximhL-18" edge="1">
          <mxGeometry relative="1" as="geometry">
            <mxPoint x="140" y="70" as="targetPoint" />
          </mxGeometry>
        </mxCell>
        <mxCell id="d-b3tzzMr_MVsFJximhL-18" value="" style="swimlane;startSize=0;" parent="1" vertex="1">
          <mxGeometry x="320" y="50" width="220" height="200" as="geometry" />
        </mxCell>
        <mxCell id="d-b3tzzMr_MVsFJximhL-19" value="" style="image;html=1;image=img/lib/clip_art/networking/Firewall_02_128x128.png" parent="d-b3tzzMr_MVsFJximhL-18" vertex="1">
          <mxGeometry x="120" y="30" width="80" height="80" as="geometry" />
        </mxCell>
        <mxCell id="d-b3tzzMr_MVsFJximhL-40" style="edgeStyle=orthogonalEdgeStyle;rounded=0;orthogonalLoop=1;jettySize=auto;html=1;exitX=1;exitY=0.5;exitDx=0;exitDy=0;exitPerimeter=0;" parent="d-b3tzzMr_MVsFJximhL-18" source="d-b3tzzMr_MVsFJximhL-21" target="d-b3tzzMr_MVsFJximhL-19" edge="1">
          <mxGeometry relative="1" as="geometry" />
        </mxCell>
        <mxCell id="d-b3tzzMr_MVsFJximhL-21" value="" style="outlineConnect=0;dashed=0;verticalLabelPosition=bottom;verticalAlign=top;align=center;html=1;shape=mxgraph.aws3.router;fillColor=#F58534;gradientColor=none;" parent="d-b3tzzMr_MVsFJximhL-18" vertex="1">
          <mxGeometry x="20" y="80" width="69" height="72" as="geometry" />
        </mxCell>
        <mxCell id="d-b3tzzMr_MVsFJximhL-22" value="Networking" style="text;html=1;align=center;verticalAlign=middle;resizable=0;points=[];autosize=1;strokeColor=none;fillColor=none;" parent="d-b3tzzMr_MVsFJximhL-18" vertex="1">
          <mxGeometry x="20" width="80" height="30" as="geometry" />
        </mxCell>
        <mxCell id="d-b3tzzMr_MVsFJximhL-25" value="Router" style="text;html=1;align=center;verticalAlign=middle;resizable=0;points=[];autosize=1;strokeColor=none;fillColor=none;" parent="1" vertex="1">
          <mxGeometry x="340" y="208" width="60" height="30" as="geometry" />
        </mxCell>
        <mxCell id="d-b3tzzMr_MVsFJximhL-26" value="Firewall" style="text;html=1;align=center;verticalAlign=middle;resizable=0;points=[];autosize=1;strokeColor=none;fillColor=none;" parent="1" vertex="1">
          <mxGeometry x="470" y="168" width="60" height="30" as="geometry" />
        </mxCell>
        <mxCell id="d-b3tzzMr_MVsFJximhL-28" value="" style="swimlane;startSize=0;" parent="1" vertex="1">
          <mxGeometry x="630" y="38" width="170" height="170" as="geometry" />
        </mxCell>
        <mxCell id="d-b3tzzMr_MVsFJximhL-30" value="" style="sketch=0;points=[[0,0,0],[0.25,0,0],[0.5,0,0],[0.75,0,0],[1,0,0],[0,1,0],[0.25,1,0],[0.5,1,0],[0.75,1,0],[1,1,0],[0,0.25,0],[0,0.5,0],[0,0.75,0],[1,0.25,0],[1,0.5,0],[1,0.75,0]];outlineConnect=0;fontColor=#232F3E;fillColor=#DD344C;strokeColor=#ffffff;dashed=0;verticalLabelPosition=bottom;verticalAlign=top;align=center;html=1;fontSize=12;fontStyle=0;aspect=fixed;shape=mxgraph.aws4.resourceIcon;resIcon=mxgraph.aws4.simple_email_service;" parent="d-b3tzzMr_MVsFJximhL-28" vertex="1">
          <mxGeometry x="40" y="46" width="78" height="78" as="geometry" />
        </mxCell>
        <mxCell id="d-b3tzzMr_MVsFJximhL-31" value="Email Server" style="text;html=1;align=center;verticalAlign=middle;resizable=0;points=[];autosize=1;strokeColor=none;fillColor=none;" parent="1" vertex="1">
          <mxGeometry x="665" y="168" width="90" height="30" as="geometry" />
        </mxCell>
        <mxCell id="d-b3tzzMr_MVsFJximhL-32" style="edgeStyle=orthogonalEdgeStyle;rounded=0;orthogonalLoop=1;jettySize=auto;html=1;exitX=1;exitY=0.5;exitDx=0;exitDy=0;entryX=-0.013;entryY=0.66;entryDx=0;entryDy=0;entryPerimeter=0;" parent="1" source="d-b3tzzMr_MVsFJximhL-18" target="d-b3tzzMr_MVsFJximhL-28" edge="1">
          <mxGeometry relative="1" as="geometry" />
        </mxCell>
        <mxCell id="d-b3tzzMr_MVsFJximhL-37" style="edgeStyle=orthogonalEdgeStyle;rounded=0;orthogonalLoop=1;jettySize=auto;html=1;exitX=0;exitY=0.5;exitDx=0;exitDy=0;entryX=0.999;entryY=0.291;entryDx=0;entryDy=0;entryPerimeter=0;" parent="1" source="d-b3tzzMr_MVsFJximhL-18" target="YRSosXPL-NYiQ_g2Kipr-1" edge="1">
          <mxGeometry relative="1" as="geometry" />
        </mxCell>
        <mxCell id="d-b3tzzMr_MVsFJximhL-39" value="Databse" style="text;html=1;align=center;verticalAlign=middle;resizable=0;points=[];autosize=1;strokeColor=none;fillColor=none;" parent="1" vertex="1">
          <mxGeometry x="665" y="288" width="70" height="30" as="geometry" />
        </mxCell>
        <mxCell id="d-b3tzzMr_MVsFJximhL-45" value="" style="image;aspect=fixed;perimeter=ellipsePerimeter;html=1;align=center;shadow=0;dashed=0;spacingTop=3;image=img/lib/active_directory/internet_globe.svg;" parent="1" vertex="1">
          <mxGeometry x="90" y="40" width="50" height="50" as="geometry" />
        </mxCell>
        <mxCell id="d-b3tzzMr_MVsFJximhL-46" style="edgeStyle=orthogonalEdgeStyle;rounded=0;orthogonalLoop=1;jettySize=auto;html=1;exitX=1;exitY=0.75;exitDx=0;exitDy=0;entryX=0.001;entryY=0.308;entryDx=0;entryDy=0;entryPerimeter=0;" parent="1" source="d-b3tzzMr_MVsFJximhL-18" target="d-b3tzzMr_MVsFJximhL-6" edge="1">
          <mxGeometry relative="1" as="geometry" />
        </mxCell>
        <mxCell id="d-b3tzzMr_MVsFJximhL-49" value="Email service" style="text;html=1;align=center;verticalAlign=middle;resizable=0;points=[];autosize=1;strokeColor=none;fillColor=none;" parent="1" vertex="1">
          <mxGeometry x="625" y="48" width="90" height="30" as="geometry" />
        </mxCell>
      </root>
    </mxGraphModel>
  </diagram>
</mxfile>
